<?xml version="1.0" encoding="UTF-8" standalone="no"?>
<!DOCTYPE svg PUBLIC "-//W3C//DTD SVG 1.1//EN" "http://www.w3.org/Graphics/SVG/1.1/DTD/svg11.dtd">
<svg width="100%" height="100%" viewBox="0 0 4608 1706" version="1.1" xmlns="http://www.w3.org/2000/svg" xmlns:xlink="http://www.w3.org/1999/xlink" xml:space="preserve" xmlns:serif="http://www.serif.com/" style="fill-rule:evenodd;clip-rule:evenodd;stroke-linejoin:round;stroke-miterlimit:2;">
    <g transform="matrix(0.578681,0,0,0.615375,-970.186,529.884)">
        <g transform="matrix(1874.64,0,0,1874.64,1703.8,1445.24)">
            <path d="M0.281,-0.689C0.366,-0.689 0.432,-0.671 0.479,-0.636C0.526,-0.6 0.549,-0.547 0.549,-0.476C0.549,-0.401 0.525,-0.345 0.476,-0.308C0.427,-0.271 0.363,-0.253 0.282,-0.253L0.195,-0.253L0.195,-0L0.1,-0L0.1,-0.689L0.281,-0.689ZM0.278,-0.328C0.333,-0.328 0.376,-0.339 0.405,-0.36C0.434,-0.381 0.448,-0.42 0.448,-0.475C0.448,-0.524 0.434,-0.56 0.405,-0.582C0.376,-0.604 0.334,-0.615 0.28,-0.615L0.195,-0.615L0.195,-0.328L0.278,-0.328Z" style="fill:#006c60;fill-rule:nonzero;"/>
        </g>
        <g transform="matrix(1874.64,0,0,1874.64,2689.86,1445.24)">
            <path d="M0.45,-0.123C0.45,-0.102 0.454,-0.086 0.461,-0.076C0.468,-0.065 0.479,-0.057 0.494,-0.052L0.473,0.012C0.446,0.009 0.424,0.001 0.407,-0.011C0.39,-0.023 0.378,-0.042 0.37,-0.067C0.335,-0.014 0.282,0.012 0.213,0.012C0.161,0.012 0.12,-0.003 0.09,-0.032C0.06,-0.061 0.045,-0.1 0.045,-0.147C0.045,-0.203 0.065,-0.246 0.106,-0.276C0.146,-0.306 0.203,-0.321 0.277,-0.321L0.358,-0.321L0.358,-0.36C0.358,-0.397 0.349,-0.424 0.331,-0.44C0.313,-0.456 0.285,-0.464 0.248,-0.464C0.209,-0.464 0.162,-0.455 0.106,-0.436L0.083,-0.503C0.148,-0.527 0.209,-0.539 0.265,-0.539C0.327,-0.539 0.373,-0.524 0.404,-0.494C0.435,-0.463 0.45,-0.42 0.45,-0.364L0.45,-0.123ZM0.234,-0.057C0.287,-0.057 0.328,-0.084 0.358,-0.139L0.358,-0.26L0.289,-0.26C0.192,-0.26 0.143,-0.224 0.143,-0.152C0.143,-0.121 0.151,-0.097 0.166,-0.081C0.181,-0.065 0.204,-0.057 0.234,-0.057Z" style="fill:#006c60;fill-rule:nonzero;"/>
        </g>
        <g transform="matrix(1874.64,0,0,1874.64,3709.66,1445.24)">
            <path d="M0.324,-0.539C0.343,-0.539 0.36,-0.537 0.376,-0.533L0.359,-0.443C0.343,-0.447 0.328,-0.449 0.313,-0.449C0.28,-0.449 0.254,-0.437 0.234,-0.413C0.214,-0.389 0.198,-0.352 0.187,-0.301L0.187,-0L0.095,-0L0.095,-0.527L0.174,-0.527L0.183,-0.42C0.197,-0.459 0.216,-0.489 0.24,-0.509C0.264,-0.529 0.292,-0.539 0.324,-0.539Z" style="fill:#006c60;fill-rule:nonzero;"/>
        </g>
        <g transform="matrix(1874.64,0,0,1874.64,4405.15,1445.24)">
            <path d="M0.238,-0.539C0.274,-0.539 0.306,-0.534 0.335,-0.524C0.364,-0.514 0.391,-0.499 0.417,-0.479L0.378,-0.421C0.354,-0.436 0.331,-0.448 0.31,-0.455C0.288,-0.462 0.265,-0.466 0.241,-0.466C0.211,-0.466 0.187,-0.46 0.17,-0.448C0.153,-0.435 0.144,-0.418 0.144,-0.397C0.144,-0.376 0.152,-0.359 0.169,-0.347C0.185,-0.335 0.214,-0.323 0.257,-0.312C0.316,-0.297 0.36,-0.277 0.389,-0.252C0.418,-0.227 0.432,-0.192 0.432,-0.148C0.432,-0.096 0.412,-0.056 0.372,-0.029C0.331,-0.002 0.282,0.012 0.224,0.012C0.144,0.012 0.078,-0.011 0.025,-0.057L0.074,-0.113C0.119,-0.079 0.168,-0.062 0.222,-0.062C0.257,-0.062 0.284,-0.069 0.305,-0.084C0.325,-0.098 0.335,-0.117 0.335,-0.142C0.335,-0.16 0.331,-0.175 0.324,-0.186C0.317,-0.197 0.304,-0.206 0.286,-0.215C0.268,-0.223 0.242,-0.232 0.207,-0.241C0.151,-0.256 0.111,-0.275 0.086,-0.3C0.061,-0.325 0.048,-0.356 0.048,-0.394C0.048,-0.421 0.056,-0.446 0.073,-0.469C0.089,-0.491 0.112,-0.508 0.141,-0.521C0.169,-0.533 0.202,-0.539 0.238,-0.539Z" style="fill:#006c60;fill-rule:nonzero;"/>
        </g>
        <g transform="matrix(1874.64,0,0,1874.64,5280.6,1445.24)">
            <path d="M0.343,-0.539C0.391,-0.539 0.429,-0.525 0.456,-0.496C0.483,-0.467 0.496,-0.428 0.496,-0.378L0.496,-0L0.404,-0L0.404,-0.365C0.404,-0.402 0.397,-0.429 0.383,-0.444C0.369,-0.459 0.348,-0.467 0.321,-0.467C0.293,-0.467 0.268,-0.459 0.247,-0.443C0.226,-0.427 0.206,-0.404 0.187,-0.374L0.187,-0L0.095,-0L0.095,-0.527L0.174,-0.527L0.182,-0.449C0.201,-0.477 0.224,-0.499 0.252,-0.515C0.279,-0.531 0.31,-0.539 0.343,-0.539Z" style="fill:#006c60;fill-rule:nonzero;"/>
        </g>
    </g>
    <g id="tight-bounds" transform="matrix(1.25409,0,0,1.34303,2525.5,600.615)">
        <g>
            <g>
                <g>
                    <g>
                        <path d="M585.29,-218.99C571.7,-216.81 558.1,-214.63 545.87,-212.46C552.67,-224.44 563.54,-232.06 563.54,-232.06C568.98,-236.42 570.34,-242.95 564.9,-247.31C559.46,-251.67 551.31,-252.76 545.87,-248.4C544.51,-247.31 518.68,-228.8 514.6,-202.66C498.29,-197.21 483.33,-190.68 471.1,-184.14C471.1,-204.83 484.69,-222.26 484.69,-223.35C488.77,-228.8 487.41,-235.33 480.61,-238.6C473.81,-241.87 465.66,-240.78 461.58,-235.33C460.22,-234.24 435.75,-203.74 445.27,-168.89C439.83,-165.62 435.75,-162.36 431.68,-159.09C430.32,-158 428.96,-158 428.96,-156.91C411.29,-143.84 397.69,-128.59 385.46,-113.34C381.38,-150.37 397.69,-184.14 397.69,-185.22C400.41,-190.67 396.33,-197.2 389.53,-199.38C382.73,-201.56 374.58,-198.29 371.86,-192.85C370.5,-190.67 344.67,-135.12 365.06,-83.93C363.7,-81.75 362.34,-78.48 360.98,-76.31C359.62,-75.22 358.26,-73.04 358.26,-71.95C348.74,-54.52 340.59,-38.19 336.51,-21.85C335.15,-20.76 335.15,-18.58 335.15,-17.49C335.15,-16.4 333.79,-14.22 333.79,-13.13C326.99,-42.54 314.76,-69.77 298.45,-95.91C335.15,-147.1 320.2,-224.43 318.84,-228.79C317.48,-234.24 310.68,-238.59 303.89,-237.5C297.1,-236.41 291.66,-230.97 293.02,-225.52C293.02,-224.43 305.25,-164.53 283.5,-119.87C268.55,-140.56 250.88,-160.17 233.2,-177.6C257.67,-232.06 215.53,-286.52 212.81,-288.69C208.73,-294.14 200.58,-296.31 193.78,-293.05C186.98,-289.79 185.62,-283.25 189.7,-277.8C189.7,-277.8 219.61,-238.59 211.45,-198.29C185.62,-222.25 159.79,-242.95 135.33,-259.28C144.85,-298.49 106.78,-330.08 104.06,-332.25C98.62,-336.61 90.47,-336.61 85.03,-332.25C79.59,-327.89 79.59,-321.36 85.03,-317C85.03,-317 105.42,-299.57 109.5,-277.79C79.59,-297.39 57.84,-309.38 55.13,-310.46C48.33,-313.73 40.18,-312.64 36.1,-307.19C32.02,-301.74 33.38,-295.21 40.18,-291.94C41.54,-290.85 108.15,-254.91 176.12,-196.09C128.54,-204.8 93.2,-195 90.48,-195C83.68,-192.82 79.61,-186.29 82.32,-180.84C85.03,-175.39 93.19,-172.13 99.99,-174.31C99.99,-174.31 153.01,-188.47 212.82,-161.24C231.85,-142.72 249.52,-122.03 264.48,-100.25C219.62,-116.59 174.76,-112.23 172.04,-112.23C165.24,-111.14 159.81,-105.7 161.17,-100.25C162.53,-94.8 169.33,-90.45 176.12,-91.54C176.12,-91.54 244.09,-99.16 288.95,-62.13C305.26,-30.54 313.42,3.22 312.06,39.16C312.06,46.78 306.62,64.21 297.11,68.57C291.67,69.66 280.8,70.75 269.92,71.84C237.3,75.11 192.44,79.46 174.76,104.51C148.93,141.54 200.59,335.41 317.49,638.2C318.85,642.56 324.29,645.82 331.08,645.82L332.44,645.82L333.8,645.82C339.24,645.82 344.67,642.55 347.39,638.2C460.22,336.5 511.87,141.54 486.05,104.51C468.38,79.46 423.52,75.1 390.89,71.84C380.02,70.75 367.78,69.66 363.7,68.57C354.18,65.3 348.75,47.88 348.75,40.25C348.75,36.98 351.47,17.38 359.62,-8.76C396.32,-16.38 427.59,-0.05 428.95,1.04C431.67,2.13 434.39,3.22 437.11,3.22C441.19,3.22 445.27,1.04 447.98,-1.14C452.06,-6.59 450.7,-13.12 443.9,-16.39C442.54,-17.48 409.92,-34.91 367.78,-31.64C371.86,-41.44 377.3,-52.33 382.73,-63.23C409.92,-78.48 473.81,-70.85 498.28,-65.41C505.08,-64.32 513.23,-67.59 514.59,-73.03C515.95,-78.48 511.87,-85.01 505.07,-86.1C496.91,-88.28 443.9,-96.99 401.76,-91.55C413.99,-108.98 428.95,-125.31 447.98,-140.56C492.84,-150.36 544.49,-135.11 544.49,-135.11C545.85,-134.02 548.57,-134.02 549.93,-134.02C555.37,-134.02 560.8,-136.2 562.16,-140.55C564.88,-146 562.16,-152.53 554,-154.71C552.64,-154.71 522.73,-164.51 486.03,-165.6C514.58,-180.85 548.56,-191.74 590.7,-197.19C597.5,-198.28 602.93,-203.72 601.58,-209.17C600.24,-215.72 593.44,-220.08 585.29,-218.99ZM227.77,217.76C227.77,212.31 234.57,206.87 241.36,206.87L295.73,206.87C302.53,206.87 309.32,212.32 309.32,217.76C309.32,223.2 302.52,228.65 295.73,228.65L241.36,228.65C234.57,228.65 227.77,223.21 227.77,217.76ZM268.56,413.81C268.56,408.36 275.36,402.92 282.15,402.92L322.93,402.92C329.73,402.92 336.52,408.37 336.52,413.81C336.52,419.25 329.72,424.7 322.93,424.7L282.15,424.7C275.35,424.7 268.56,419.26 268.56,413.81ZM350.12,500.94L322.93,500.94C316.13,500.94 309.34,495.49 309.34,490.05C309.34,484.61 316.14,479.16 322.93,479.16L350.12,479.16C356.92,479.16 363.71,484.61 363.71,490.05C363.71,495.49 356.91,500.94 350.12,500.94ZM350.12,294L377.31,294C384.11,294 390.9,299.45 390.9,304.89C390.9,310.33 384.1,315.78 377.31,315.78L350.12,315.78C343.32,315.78 336.53,310.33 336.53,304.89C336.53,299.45 343.32,294 350.12,294Z" style="fill:#006c60;fill-rule:nonzero;"/>
                    </g>
                </g>
            </g>
        </g>
    </g>
    <g transform="matrix(0.619393,0,0,0.619393,3198.63,1418.79)">
        <g transform="matrix(1751.42,0,0,1862.48,0,0)">
            <path d="M0.337,-0.539C0.404,-0.539 0.454,-0.515 0.485,-0.467C0.516,-0.419 0.532,-0.351 0.532,-0.264C0.532,-0.181 0.514,-0.115 0.478,-0.064C0.442,-0.013 0.391,0.012 0.325,0.012C0.266,0.012 0.22,-0.008 0.187,-0.048L0.187,0.202L0.095,0.213L0.095,-0.527L0.174,-0.527L0.181,-0.456C0.2,-0.483 0.224,-0.503 0.251,-0.518C0.278,-0.532 0.307,-0.539 0.337,-0.539ZM0.303,-0.063C0.39,-0.063 0.433,-0.13 0.433,-0.264C0.433,-0.399 0.393,-0.466 0.314,-0.466C0.288,-0.466 0.264,-0.458 0.243,-0.443C0.222,-0.428 0.203,-0.408 0.187,-0.384L0.187,-0.127C0.2,-0.106 0.217,-0.091 0.237,-0.08C0.257,-0.069 0.279,-0.063 0.303,-0.063Z" style="fill:#006c60;fill-rule:nonzero;"/>
        </g>
    </g>
</svg>
